<svg width="20" height="6" viewBox="0 0 20 6" fill="none" xmlns="http://www.w3.org/2000/svg">
<path d="M5.19999 2.99998C5.19999 3.63649 4.94714 4.24694 4.49705 4.69703C4.04696 5.14712 3.43651 5.39997 2.79999 5.39997C2.16347 5.39997 1.55302 5.14712 1.10294 4.69703C0.65285 4.24694 0.399994 3.63649 0.399994 2.99998C0.399994 2.36346 0.65285 1.75301 1.10294 1.30292C1.55302 0.852832 2.16347 0.599976 2.79999 0.599976C3.43651 0.599976 4.04696 0.852832 4.49705 1.30292C4.94714 1.75301 5.19999 2.36346 5.19999 2.99998ZM12.4 2.99998C12.4 3.63649 12.1471 4.24694 11.697 4.69703C11.247 5.14712 10.6365 5.39997 9.99999 5.39997C9.36347 5.39997 8.75303 5.14712 8.30294 4.69703C7.85285 4.24694 7.59999 3.63649 7.59999 2.99998C7.59999 2.36346 7.85285 1.75301 8.30294 1.30292C8.75303 0.852832 9.36347 0.599976 9.99999 0.599976C10.6365 0.599976 11.247 0.852832 11.697 1.30292C12.1471 1.75301 12.4 2.36346 12.4 2.99998ZM17.2 5.39997C17.8365 5.39997 18.447 5.14712 18.897 4.69703C19.3471 4.24694 19.6 3.63649 19.6 2.99998C19.6 2.36346 19.3471 1.75301 18.897 1.30292C18.447 0.852832 17.8365 0.599976 17.2 0.599976C16.5635 0.599976 15.953 0.852832 15.5029 1.30292C15.0528 1.75301 14.8 2.36346 14.8 2.99998C14.8 3.63649 15.0528 4.24694 15.5029 4.69703C15.953 5.14712 16.5635 5.39997 17.2 5.39997Z" fill="white"/>
</svg>
